<svg width="115" height="130" viewBox="0 0 115 130" fill="none" xmlns="http://www.w3.org/2000/svg">
<path d="M79.9212 110.521H6.03974C3.63936 110.521 1.69385 108.579 1.69385 106.183V8.57278C1.69385 6.17667 3.63936 4.23462 6.03974 4.23462H79.9212C82.3216 4.23462 84.2671 6.17667 84.2671 8.57278V106.183C84.2671 108.579 82.3214 110.521 79.9212 110.521Z" fill="#7F8499"/>
<path d="M32.2867 28.2277L25.796 23.8767L19.3054 28.2277V4.29707C19.3054 3.09573 20.2742 2.12158 21.4689 2.12158H30.1234C31.3181 2.12158 32.2869 3.09573 32.2869 4.29707V28.2277H32.2867Z" fill="#FFDC64"/>
<path d="M47.4318 45.9493L50.5441 52.2901L57.5029 53.307L52.4676 58.2423L53.656 65.2117L47.4318 61.9211L41.2073 65.2117L42.3962 58.2423L37.3604 53.307L44.3197 52.2901L47.4318 45.9493Z" fill="#FFDC64"/>
<path d="M67.6506 45.9493L70.7627 52.2901L77.722 53.307L72.6862 58.2423L73.8751 65.2117L67.6506 61.9211L61.4264 65.2117L62.6151 58.2423L57.5795 53.307L64.5385 52.2901L67.6506 45.9493Z" fill="#FFDC64"/>
<path d="M27.2126 45.9493L30.325 52.2901L37.284 53.307L32.2485 58.2423L33.4371 65.2117L27.2126 61.9211L20.9884 65.2117L22.1773 58.2423L17.1415 53.307L24.1008 52.2901L27.2126 45.9493Z" fill="#FFDC64"/>
<path d="M10.1629 110.521H5.92838C3.58951 110.521 1.69385 108.579 1.69385 106.183V8.57278C1.69385 6.17667 3.58951 4.23462 5.92838 4.23462H10.1629V110.521Z" fill="#707487"/>
<path d="M21.3346 2.26074C20.1655 2.26074 19.2174 3.2404 19.2174 4.44854V28.5148L25.5692 24.1392V2.26074H21.3346Z" fill="#FFC850"/>
<path d="M49.544 99.6323C49.544 103.438 50.1732 107.092 51.2972 110.521H79.9268C82.3239 110.521 84.2671 108.571 84.2671 106.166V64.7882C65.0902 64.7882 49.544 80.3885 49.544 99.6323Z" fill="#707487"/>
<circle cx="84.0554" cy="99.7231" r="28.1596" fill="#FFDC64"/>
<path d="M91.0336 123.179C75.5088 123.179 62.9235 110.544 62.9235 94.9577C62.9235 86.6841 66.4912 79.266 72.1408 74.1042C62.5538 78.5988 55.8958 88.3375 55.8958 99.6612C55.8958 115.247 68.481 127.883 84.0059 127.883C91.2901 127.883 97.9054 125.077 102.899 120.514C99.2901 122.207 95.2796 123.179 91.0336 123.179Z" fill="#FFC850"/>
<path d="M93.9059 94.449H84.4499C87.2247 92.0997 88.8082 88.9779 89.4026 86.8079C89.8248 85.2662 89.1703 83.5506 87.7155 82.8815C85.8242 82.0117 83.674 83.0668 83.1598 84.9913C82.9906 85.627 81.3339 91.2056 75.4735 91.2056C73.08 91.2056 71.14 93.1415 71.14 95.53V109.584C71.14 111.973 73.08 113.909 75.4735 113.909H89.7601C92.8069 113.909 95.4447 111.797 96.1055 108.829L98.136 99.7113C98.7378 97.011 96.6782 94.449 93.9059 94.449Z" fill="white"/>
<path fill-rule="evenodd" clip-rule="evenodd" d="M86.5415 69.5482V8.54902C86.5415 5.03217 83.6816 2.17115 80.1662 2.17115H33.9261C33.208 0.878008 31.8296 0 30.2489 0H21.5676C19.9869 0 18.6084 0.878008 17.8902 2.17115H6.37532C2.85987 2.17115 0 5.03217 0 8.54902V106.253C0 109.77 2.85987 112.631 6.37532 112.631H57.1444C61.992 122.887 72.4338 130 84.5068 130C101.186 130 114.756 116.425 114.756 99.7389C114.756 83.737 102.276 70.5986 86.5415 69.5482ZM21.5675 4.07089H30.2489C30.3238 4.07089 30.3845 4.13157 30.3845 4.20647V24.2861L27.0368 22.0533C26.6949 21.8253 26.3015 21.7113 25.9081 21.7113C25.5147 21.7113 25.1213 21.8253 24.7794 22.0533L21.4318 24.2861V4.20673C21.432 4.13183 21.4927 4.07089 21.5675 4.07089ZM4.06924 8.54912V106.253C4.06924 107.525 5.10375 108.559 6.37531 108.559H8.68138V6.24213H6.37531C5.10375 6.24213 4.06924 7.27705 4.06924 8.54912ZM12.7507 6.24224H17.3625V28.0899C17.3625 28.8407 17.7755 29.5305 18.4371 29.8847C19.0988 30.2389 19.9016 30.2001 20.5257 29.7834L25.9081 26.1937L31.2906 29.7834C31.6309 30.0107 32.0246 30.1254 32.4195 30.1254C32.7487 30.1254 33.0786 30.0457 33.3796 29.8847C34.041 29.5305 34.4542 28.8407 34.4542 28.0899V6.24224H80.1667C81.4383 6.24224 82.4728 7.27716 82.4728 8.54923V69.5482C66.7387 70.5988 54.2586 83.7372 54.2586 99.7392C54.2586 102.806 54.7188 105.768 55.5705 108.56H12.7507V6.24224ZM58.3273 99.7392C58.3273 114.18 70.0714 125.929 84.5068 125.929C98.9422 125.929 110.686 114.18 110.686 99.739C110.686 85.2978 98.9419 73.549 84.5068 73.549C70.0716 73.549 58.3273 85.298 58.3273 99.7392Z" fill="black"/>
<path fill-rule="evenodd" clip-rule="evenodd" d="M88.9864 92.3911H93.9562C95.9078 92.3911 97.7272 93.2618 98.9487 94.7809C100.17 96.2994 100.627 98.26 100.204 100.16L98.1622 109.325C97.2831 113.27 93.8395 116.026 89.7879 116.026H75.4227C71.8937 116.026 69.0228 113.162 69.0228 109.642V95.5156C69.0228 91.9954 71.8937 89.1316 75.4227 89.1316C77.2638 89.1316 78.7056 88.4416 79.8307 87.0219C80.7795 85.8246 81.1395 84.5419 81.1775 84.3995C81.5824 82.8835 82.6333 81.6313 84.0611 80.9619C85.492 80.2909 87.1412 80.2871 88.5866 80.9517C90.8888 82.01 92.0978 84.7332 91.3984 87.2857C91.1831 88.0718 90.5184 90.1314 88.9864 92.3911ZM94.1745 108.441L96.2161 99.2761C96.3692 98.5883 96.2036 97.8793 95.7621 97.3303C95.3203 96.7813 94.6624 96.4662 93.9564 96.4662H84.4484C83.5916 96.4662 82.826 95.9327 82.5309 95.1306C82.2359 94.3285 82.4738 93.4278 83.1269 92.875C85.5315 90.8398 86.9407 88.0982 87.4579 86.2111C87.6342 85.5679 87.3789 84.8835 86.8768 84.6524C86.6803 84.5619 86.4961 84.5299 86.3336 84.5299C86.1022 84.5299 85.9147 84.5947 85.7983 84.6494C85.464 84.8059 85.2184 85.0967 85.1249 85.4469C84.9137 86.2399 82.8435 93.2059 75.4227 93.2059C74.1462 93.2059 73.1077 94.2418 73.1077 95.5151V109.641C73.1077 110.915 74.1462 111.951 75.4227 111.951H89.7879C91.9103 111.951 93.7139 110.507 94.1745 108.441Z" fill="black"/>
<path fill-rule="evenodd" clip-rule="evenodd" d="M54.4477 58.6266L55.4586 64.5258C55.5894 65.2894 55.2757 66.0609 54.6478 66.5155C54.2938 66.7734 53.874 66.9044 53.4525 66.9044C53.1292 66.9044 52.8046 66.8275 52.5068 66.6709L47.2141 63.8856L41.9213 66.6709C41.2363 67.0316 40.4063 66.9717 39.7804 66.516C39.154 66.0611 38.8408 65.2894 38.9714 64.5258L39.9822 58.6266L37.0812 55.7959L34.1802 58.6266L35.1911 64.5258C35.3217 65.2894 35.0083 66.0606 34.3821 66.516C34.0281 66.7739 33.6084 66.9049 33.1869 66.9049C32.8635 66.9049 32.5389 66.828 32.2412 66.6714L26.9487 63.8861L21.6559 66.6714C20.9709 67.0321 20.1409 66.9722 19.515 66.5165C18.8886 66.0616 18.5753 65.2899 18.706 64.5263L19.7168 58.6271L15.4349 54.4493C14.8808 53.9083 14.6812 53.0998 14.9204 52.3631C15.1595 51.6265 15.7956 51.0893 16.5615 50.9781L22.4791 50.1173L25.1257 44.7499C25.4684 44.0554 26.1752 43.6155 26.9489 43.6155C27.7227 43.6155 28.4295 44.0554 28.7721 44.7499L31.4185 50.1173L37.082 50.9411L42.7455 50.1173L45.3919 44.7499C45.7345 44.0554 46.4411 43.6155 47.2151 43.6155C47.9889 43.6155 48.6956 44.0554 49.0383 44.7499L51.6847 50.1173L57.3482 50.9411L63.0115 50.1173L65.6578 44.7499C66.0005 44.0554 66.707 43.6155 67.481 43.6155C68.2548 43.6155 68.9616 44.0554 69.3042 44.7499L71.9508 50.1173L77.8685 50.9781C78.6344 51.0896 79.2704 51.6265 79.5096 52.3631C79.7487 53.0998 79.5491 53.9086 78.995 54.4493L74.7131 58.6271L75.724 64.5263C75.8546 65.2899 75.5411 66.0611 74.915 66.5165C74.2893 66.9719 73.4593 67.0321 72.774 66.6714L67.4813 63.8861L62.1888 66.6714C61.8915 66.8275 61.5664 66.9049 61.2431 66.9049C60.8216 66.9049 60.4021 66.7737 60.0478 66.516C59.4214 66.0611 59.1082 65.2894 59.2388 64.5258L60.2497 58.6266L57.3487 55.7959L54.4477 58.6266ZM66.1856 52.8776C65.8897 53.4785 65.317 53.8948 64.6549 53.991L61.7569 54.4127L63.8542 56.4592C64.3336 56.9265 64.5522 57.6002 64.4391 58.2605L63.9438 61.1501L66.5361 59.7859C66.8323 59.6303 67.1572 59.5523 67.4821 59.5523C67.8067 59.5523 68.1318 59.63 68.428 59.7859L71.0206 61.1501L70.5253 58.2605C70.4122 57.6005 70.6308 56.9268 71.1102 56.4592L73.2075 54.4127L70.3088 53.991C69.6466 53.8945 69.0742 53.478 68.778 52.8776L67.4818 50.2485L66.1856 52.8776ZM30.578 56.4588C30.0987 56.9264 29.8801 57.6002 29.9932 58.2602L30.4885 61.1497L27.8961 59.7855C27.3035 59.4741 26.5964 59.4741 26.004 59.7855L23.4114 61.1497L23.9067 58.2602C24.0198 57.5999 23.8012 56.9262 23.3218 56.4588L21.2245 54.4123L24.1232 53.9907C24.7854 53.8945 25.3578 53.4781 25.654 52.8773L26.9502 50.2482L28.2464 52.8773C28.5423 53.4776 29.115 53.8942 29.7771 53.9907L32.6759 54.4123L30.578 56.4588ZM50.2594 58.2602C50.1463 57.6002 50.3649 56.9264 50.8442 56.4588L52.9418 54.4123L50.0431 53.9907C49.3809 53.8942 48.8083 53.4776 48.5123 52.8773L47.2161 50.2482L45.9199 52.8773C45.624 53.4781 45.0513 53.8945 44.3892 53.9907L41.4905 54.4123L43.588 56.4588C44.0674 56.9262 44.286 57.5999 44.1729 58.2602L43.6776 61.1497L46.2702 59.7855C46.5664 59.6299 46.8915 59.552 47.2161 59.552C47.5407 59.552 47.8659 59.6297 48.1621 59.7855L50.7547 61.1497L50.2594 58.2602Z" fill="black"/>
</svg>
